<svg width="295" height="117" viewBox="0 0 295 117" fill="none" xmlns="http://www.w3.org/2000/svg">
<g clip-path="url(#clip0_1_23)">
<path d="M81.72 67.16C81.72 69.9333 81.0267 72.2533 79.64 74.12C78.2533 75.9867 76.28 77.4 73.72 78.36C71.16 79.32 68.12 79.8 64.6 79.8C61.6133 79.8 59.0267 79.56 56.84 79.08C54.7067 78.6 52.8133 77.9333 51.16 77.08V70.68C52.8667 71.5333 54.92 72.3333 57.32 73.08C59.7733 73.7733 62.2533 74.12 64.76 74.12C68.3333 74.12 70.92 73.56 72.52 72.44C74.12 71.2667 74.92 69.72 74.92 67.8C74.92 66.7333 74.6267 65.7733 74.04 64.92C73.4533 64.0667 72.3867 63.2133 70.84 62.36C69.3467 61.5067 67.1867 60.5467 64.36 59.48C61.5867 58.4133 59.2133 57.3467 57.24 56.28C55.2667 55.2133 53.7467 53.9333 52.68 52.44C51.6133 50.9467 51.08 49.0267 51.08 46.68C51.08 43.0533 52.5467 40.2533 55.48 38.28C58.4667 36.3067 62.36 35.32 67.16 35.32C69.7733 35.32 72.2 35.5867 74.44 36.12C76.7333 36.6 78.8667 37.2933 80.84 38.2L78.44 43.8C77.2667 43.2667 76.0133 42.8133 74.68 42.44C73.4 42.0133 72.0933 41.6933 70.76 41.48C69.4267 41.2133 68.0667 41.08 66.68 41.08C63.8 41.08 61.5867 41.56 60.04 42.52C58.5467 43.4267 57.8 44.68 57.8 46.28C57.8 47.4533 58.1467 48.4667 58.84 49.32C59.5333 50.12 60.68 50.92 62.28 51.72C63.9333 52.4667 66.12 53.3733 68.84 54.44C71.56 55.4533 73.88 56.4933 75.8 57.56C77.72 58.6267 79.1867 59.9333 80.2 61.48C81.2133 62.9733 81.72 64.8667 81.72 67.16ZM129.361 57.48C129.361 61.0533 128.881 64.2267 127.921 67C127.015 69.72 125.681 72.04 123.921 73.96C122.215 75.88 120.108 77.3467 117.601 78.36C115.148 79.32 112.401 79.8 109.361 79.8C106.535 79.8 103.921 79.32 101.521 78.36C99.1213 77.3467 97.0413 75.88 95.2812 73.96C93.5213 72.04 92.1346 69.72 91.1213 67C90.1613 64.2267 89.6813 61.0533 89.6813 57.48C89.6813 52.7333 90.4813 48.7333 92.0813 45.48C93.6813 42.1733 95.9746 39.6667 98.9613 37.96C101.948 36.2 105.495 35.32 109.601 35.32C113.495 35.32 116.908 36.2 119.841 37.96C122.828 39.6667 125.148 42.1733 126.801 45.48C128.508 48.7333 129.361 52.7333 129.361 57.48ZM96.9613 57.48C96.9613 60.84 97.3879 63.7733 98.2413 66.28C99.1479 68.7333 100.535 70.6267 102.401 71.96C104.268 73.2933 106.641 73.96 109.521 73.96C112.401 73.96 114.775 73.2933 116.641 71.96C118.508 70.6267 119.868 68.7333 120.721 66.28C121.628 63.7733 122.081 60.84 122.081 57.48C122.081 54.0667 121.628 51.16 120.721 48.76C119.815 46.36 118.428 44.52 116.561 43.24C114.748 41.9067 112.375 41.24 109.441 41.24C105.068 41.24 101.895 42.68 99.9213 45.56C97.9479 48.44 96.9613 52.4133 96.9613 57.48ZM147.559 79H140.519V18.2H147.559V79ZM154.424 36.12H161.944L171.224 60.52C171.757 61.96 172.237 63.3467 172.664 64.68C173.144 66.0133 173.57 67.32 173.944 68.6C174.317 69.8267 174.61 71.0267 174.824 72.2H175.144C175.464 70.8667 175.97 69.1333 176.664 67C177.357 64.8133 178.077 62.6267 178.824 60.44L187.544 36.12H195.144L176.664 84.92C175.65 87.5867 174.45 89.9067 173.064 91.88C171.73 93.9067 170.077 95.4533 168.104 96.52C166.184 97.64 163.837 98.2 161.064 98.2C159.784 98.2 158.664 98.12 157.704 97.96C156.744 97.8533 155.917 97.72 155.224 97.56V91.96C155.81 92.0667 156.504 92.1733 157.304 92.28C158.157 92.3867 159.037 92.44 159.944 92.44C161.597 92.44 163.01 92.12 164.184 91.48C165.41 90.8933 166.45 90.0133 167.304 88.84C168.157 87.72 168.877 86.3867 169.464 84.84L171.704 79.16L154.424 36.12ZM229.845 67.16C229.845 69.9333 229.152 72.2533 227.765 74.12C226.378 75.9867 224.405 77.4 221.845 78.36C219.285 79.32 216.245 79.8 212.725 79.8C209.738 79.8 207.152 79.56 204.965 79.08C202.832 78.6 200.938 77.9333 199.285 77.08V70.68C200.992 71.5333 203.045 72.3333 205.445 73.08C207.898 73.7733 210.378 74.12 212.885 74.12C216.458 74.12 219.045 73.56 220.645 72.44C222.245 71.2667 223.045 69.72 223.045 67.8C223.045 66.7333 222.752 65.7733 222.165 64.92C221.578 64.0667 220.512 63.2133 218.965 62.36C217.472 61.5067 215.312 60.5467 212.485 59.48C209.712 58.4133 207.338 57.3467 205.365 56.28C203.392 55.2133 201.872 53.9333 200.805 52.44C199.738 50.9467 199.205 49.0267 199.205 46.68C199.205 43.0533 200.672 40.2533 203.605 38.28C206.592 36.3067 210.485 35.32 215.285 35.32C217.898 35.32 220.325 35.5867 222.565 36.12C224.858 36.6 226.992 37.2933 228.965 38.2L226.565 43.8C225.392 43.2667 224.138 42.8133 222.805 42.44C221.525 42.0133 220.218 41.6933 218.885 41.48C217.552 41.2133 216.192 41.08 214.805 41.08C211.925 41.08 209.712 41.56 208.165 42.52C206.672 43.4267 205.925 44.68 205.925 46.28C205.925 47.4533 206.272 48.4667 206.965 49.32C207.658 50.12 208.805 50.92 210.405 51.72C212.058 52.4667 214.245 53.3733 216.965 54.44C219.685 55.4533 222.005 56.4933 223.925 57.56C225.845 58.6267 227.312 59.9333 228.325 61.48C229.338 62.9733 229.845 64.8667 229.845 67.16Z" fill="white"/>
</g>
<defs>
<clipPath id="clip0_1_23">
<rect width="295" height="117" fill="white"/>
</clipPath>
</defs>
</svg>
